<svg width="2054" height="821" viewBox="0 0 2054 821" fill="none" xmlns="http://www.w3.org/2000/svg">
<path d="M465.368 54.1821C459.795 63.6196 456.849 74.297 451.86 84.0409C445.15 97.5481 442.145 112.412 437.287 126.619C432.283 148.426 427.47 170.277 422.7 192.128C421.037 203.243 418.688 214.241 416.529 225.268C411.414 265.812 401.915 307.159 399.87 347.679C399.5 363.979 385.804 460.262 394.59 467.042C426.812 473.343 486.641 454.849 518.334 447.043C527.32 444.622 536.787 443.849 545.482 440.494C556.028 433.974 567.567 429.394 578.828 424.317C586.939 421.094 597.281 424.843 600.257 433.347C604.327 441.311 597.588 448.662 592.905 454.497C587.406 457.94 580.593 458.129 574.992 461.353C562.797 468.165 550.879 475.706 540.755 485.406C525.879 495.119 510.865 508.567 498.802 521.712C505.658 519.408 511.96 515.834 518.495 512.8C527.612 508.497 536.831 504.281 545.248 498.68C554.292 492.583 564.518 488.251 572.76 481.001C578.507 475.779 585.057 471.447 592.088 468.15C603.92 463.245 616.093 472.238 608.251 484.341C604.969 490.147 599.105 493.721 594.699 498.549C591.476 501.758 589.535 505.93 587.595 509.97C599.265 508.263 610.162 502.75 619.512 495.719C623.641 492.904 628.265 490.891 632.349 488.017C643.334 479.98 654.829 472.657 665.711 464.474C676.006 455.563 684.818 445.939 696.052 437.927C703.652 432.821 715.92 436.06 717.977 445.643C725.286 437.708 732.215 428.65 734.344 417.812C736.416 408.695 739.713 399.929 742.163 390.914C744.016 379.93 750.026 370.362 753.673 359.961C758.341 346.848 765.605 334.901 771.396 322.284C778.063 306.822 789.207 293.84 796.428 278.67C804.248 263.506 819.361 245.028 834.005 235.975C838.279 234.633 842.977 234.867 847.353 235.64C851.087 237.769 853.932 241.153 857.112 244.012C854.836 250.299 852.575 256.746 848.141 261.881C841.328 271.493 836.398 282.302 830.504 292.484C819.079 311.814 813.61 335 801.694 353.966C794.328 366.525 790.36 380.82 782.176 392.912C777.012 399.579 773.322 407.207 768.318 413.99C761.156 423.442 757.626 434.907 753.746 445.935C751.587 456.962 746.248 467.45 746.962 478.915C746.569 486.602 748.83 494.45 753.527 500.576C757.597 501.247 762.133 501.32 765.707 498.913C773.935 494.027 782.03 488.922 790.243 483.991C795.932 480.184 801.607 475.925 805.487 470.192C810.257 461.163 814.677 451.594 822.19 444.447C834.361 432.847 881.914 429.672 866.083 454.818C864.157 459.267 859.183 460.799 855.478 463.38C848.111 468.471 840.716 473.664 834.414 480.082C832.109 482.08 831.919 485.26 831.161 488.003C853.909 484.499 878.225 477.752 896.862 463.687C903.047 459.15 903.208 450.238 909.101 445.395C912.646 442.58 916.599 438.102 921.632 439.838C926.869 441.748 933.943 443.134 935.927 449.158C939.297 456.452 937.634 464.795 940.114 472.366C940.945 478.74 942.39 485.114 946.634 490.176C981.804 473.78 998.197 429.274 1031.91 409.06C1036.43 406.566 1040.61 402.35 1046.18 402.831C1052.66 402.496 1059.76 407.805 1059.37 414.705C1061.04 442.637 1058.99 472.53 1056.03 500.474C1053.94 513.587 1051.3 526.686 1046.67 539.172C1045.57 540.952 1043.74 542.192 1041.86 543.038C1039.34 542.163 1037 540.864 1034.6 539.741C1034.39 525.271 1034.64 510.801 1034.55 496.332C1034.53 480.649 1033.29 466.742 1034.38 451.171C1034.76 446.664 1034.9 442.157 1035.35 437.664C1026.66 442.128 1020.65 450.048 1013.68 456.641C1008.37 461.615 1004.85 468.092 999.835 473.328C993.868 479.995 986.618 485.523 981.484 492.918C977.72 498.884 971.156 502.035 966.24 506.878C952.259 520.117 939.151 521.374 925.468 507.767C918.16 501.802 915.315 492.481 911.552 484.21C898.992 491.708 885.907 498.52 871.918 502.925C848.234 510.036 827.882 517.759 805.75 500.956C801.884 504.077 797.683 506.703 793.292 509.007C784.7 513.515 777.129 520.458 767.356 522.369C761.623 523.025 755.817 522.967 750.084 522.573C739.663 521.966 725.35 507.928 725.402 497.849C725.417 490.045 722.864 482.635 721.332 475.079C703.145 491.386 684.764 521.855 658.154 525.592C649.738 524.994 643.64 518.182 639.453 511.458C628.177 516.271 618.243 523.871 606.588 527.868C600.636 529.779 594.685 531.69 588.719 533.513C581.323 535.861 573.883 531.938 567.348 528.845C562.534 526.643 560.579 521.61 559.048 516.928C550.733 521.1 542.914 526.19 534.512 530.158C526.372 533.557 519.02 538.545 510.691 541.492C498.321 546.218 485.075 550.579 471.684 548.654C462.82 546.586 447.909 536.612 459.708 526.949C478.281 508.192 494.967 487.938 514.615 470.221C505.906 469.2 497.679 472.468 489.16 473.489C459.085 480.262 420.526 477.409 393.321 492.685C390.695 495.661 391.337 499.949 391.132 503.61C391.708 559.685 389.31 615.387 404.188 670.189C413.711 703.92 444.589 745.115 432.867 780.829H418.221C409.848 776.015 407.266 766.271 403.969 757.899C373.567 682.31 372.956 590.122 303.462 536.08C279.311 521.2 250.613 524.714 224.822 515.498C219.074 514.083 214.625 508.555 214.713 502.618C217.295 498.315 221.467 494.464 226.616 493.808C265.27 489.331 335.017 489.599 369.354 469.988C375.518 322.692 403.295 196.957 436.718 56.0929C441.783 37.5637 477.928 33.0584 465.368 54.1821ZM288.539 508.541C290.071 509.955 291.471 511.604 293.485 512.377C330.66 529.958 350.17 570.651 372.023 603.558C373.467 588.184 370.564 572.97 369.368 557.697C369.281 536.78 369.426 515.863 369.339 494.946C344.076 495.215 311.896 498.638 288.539 508.541ZM496.628 523.01C497.416 523.798 497.416 523.798 496.628 523.01V523.01Z" fill="white"/>
<path d="M1303.68 60.9503C1312.95 54.0548 1331.03 62.085 1320.67 73.5677C1313.76 78.0896 1306.34 82.9323 1302.81 90.7361C1249.99 211.057 1188.7 371.001 1215.99 504.675C1223.01 521.32 1219.3 539.409 1232.68 553.774C1233.61 560.113 1232.55 563.663 1225.65 565.02C1217.48 563.459 1212.29 556.283 1209.57 548.931C1160.13 405.433 1206.6 291.376 1251.58 151.723C1258 136.513 1265.47 121.481 1271.45 106.096C1273.41 100.436 1277.51 95.7102 1278.58 89.7151C1281.04 83.4428 1283.71 76.8789 1288.66 72.1382C1293.51 68.2885 1296.9 65.2636 1303.68 60.9503Z" fill="white"/>
<path d="M209.695 241.839C218.476 238.688 228.614 242.495 233.428 250.372C234.683 256.732 233.647 263.952 229.125 268.853C225.289 272.223 220.285 274.673 218.403 279.779C203.343 311.959 185.176 342.877 173.795 376.575C158.506 440.681 139.664 507.269 141.892 573.684C143.07 592.26 140.171 632.4 156.772 643.088C160.381 635.148 160.675 630.641 169.536 630.528C170.192 640.433 168.544 650.789 163.161 659.264C160.68 663.977 147.103 661.499 144.081 658.929C135.97 653.488 133.563 643.54 130.223 634.977C110.541 554.325 132.088 469.164 147.494 388.376C153.021 358.603 161.679 324.489 176.319 297.531C183.481 284.68 184.575 269.305 192.584 256.863C197.427 250.999 203.247 245.865 209.695 241.839Z" fill="white"/>
<path d="M1511.77 437.189C1520.27 447.542 1518.96 458.84 1507.29 466.216C1485.08 479.348 1458.46 483.854 1433.92 490.546C1429.48 491.815 1424.61 491.568 1420.47 493.741C1420.16 496.862 1420.58 500.305 1423.37 502.245C1452.09 535.343 1526.63 496.328 1562.32 486.214C1565.52 482.042 1566.31 476.645 1568.65 472.007C1591.31 429.156 1643.55 401.392 1688.92 427.898C1702.62 436.145 1690.59 453.454 1681.03 459.054C1673.7 463.415 1666.83 468.521 1659.16 472.255C1650.69 476.543 1641.41 479.198 1633.43 484.464C1624.31 490.853 1612.35 491.276 1604.01 498.948C1701.82 540.272 1821.04 492.2 1923.72 487.512C1923.72 487.512 1926.5 487.5 1928 488C1929.5 488.5 1930.91 489.168 1931.54 490.5C1932.17 491.832 1930.35 496.875 1923.37 499.013C1916.39 501.151 1885.41 506.45 1866.83 510.778C1819.14 525.008 1763.1 528.006 1713.73 531.301C1665.62 533.138 1617.59 533.511 1573.27 509.655C1566.01 508.225 1559.34 512.762 1552.41 514.162C1506.83 522.442 1448.81 551.727 1405.66 519.968C1398.48 514.571 1395.71 505.687 1392.23 497.825C1353.48 495.88 1309.29 502.68 1270.71 507C1266.45 507.613 1262.17 507.073 1257.96 506.329C1258.84 503.456 1259.07 499.809 1262.25 498.467C1269.9 494.587 1276.43 488.811 1284.29 485.339C1321.57 476.479 1361.45 479.107 1399.36 472.255C1405.52 465.472 1407.79 455.801 1414.81 449.631C1419.96 445.036 1424.93 440.281 1429.72 435.292C1453.38 409.972 1489.27 408.535 1511.77 437.189ZM1598.1 473.086C1617.98 466.36 1640.53 457.871 1657.67 445.27C1624.5 435 1613.71 457.813 1598.1 473.086ZM1448 452.5C1443.3 456.278 1438.75 461.417 1435.87 467.077C1441.59 463.678 1448.64 464.918 1454.31 461.49C1461.97 457.449 1471.01 457.508 1478.6 453.365C1480.18 452.5 1480.77 452.5 1481.5 450C1483 444.869 1477.5 441 1467.5 441C1457.5 442 1453.24 448.401 1448 452.5Z" fill="white"/>
<path d="M1511.77 437.189C1520.27 447.542 1518.96 458.84 1507.29 466.216C1485.08 479.348 1458.46 483.854 1433.92 490.546C1429.48 491.815 1424.61 491.568 1420.47 493.741C1420.16 496.862 1420.58 500.305 1423.37 502.245C1452.09 535.343 1526.63 496.328 1562.32 486.214C1565.52 482.042 1566.31 476.645 1568.65 472.007C1591.31 429.156 1643.55 401.392 1688.92 427.898C1702.62 436.145 1690.59 453.454 1681.03 459.054C1673.7 463.415 1666.83 468.521 1659.16 472.255C1650.69 476.543 1641.41 479.198 1633.43 484.464C1624.31 490.853 1612.35 491.276 1604.01 498.948C1701.82 540.272 1821.04 492.2 1923.72 487.512C1923.72 487.512 1926.5 487.5 1928 488C1929.5 488.5 1930.91 489.168 1931.54 490.5C1932.17 491.832 1930.35 496.875 1923.37 499.013C1916.39 501.151 1885.41 506.45 1866.83 510.778C1819.14 525.008 1763.1 528.006 1713.73 531.301C1665.62 533.138 1617.59 533.511 1573.27 509.655C1566.01 508.225 1559.34 512.762 1552.41 514.162C1506.83 522.442 1448.81 551.727 1405.66 519.968C1398.48 514.571 1395.71 505.687 1392.23 497.825C1353.48 495.88 1309.29 502.68 1270.71 507C1266.45 507.613 1262.17 507.073 1257.96 506.329C1258.84 503.456 1259.07 499.809 1262.25 498.467C1269.9 494.587 1276.43 488.811 1284.29 485.339C1321.57 476.479 1361.45 479.107 1399.36 472.255C1405.52 465.472 1407.79 455.801 1414.81 449.631C1419.96 445.036 1424.93 440.281 1429.72 435.292C1453.38 409.972 1489.27 408.535 1511.77 437.189ZM1598.1 473.086C1617.98 466.36 1640.53 457.871 1657.67 445.27C1624.5 435 1613.71 457.813 1598.1 473.086ZM1448 452.5C1443.3 456.278 1438.75 461.417 1435.87 467.077C1441.59 463.678 1448.64 464.918 1454.31 461.49C1461.97 457.449 1471.01 457.508 1478.6 453.365C1480.18 452.5 1480.77 452.5 1481.5 450C1483 444.869 1477.5 441 1467.5 441C1457.5 442 1453.24 448.401 1448 452.5Z" fill="white"/>
</svg>
