<svg width="1810" height="741" viewBox="0 0 1810 741" fill="none" xmlns="http://www.w3.org/2000/svg">
<path d="M343.368 14.1821C337.795 23.6196 334.849 34.297 329.86 44.0409C323.15 57.5481 320.145 72.4118 315.287 86.6192C310.283 108.426 305.47 130.277 300.7 152.128C299.037 163.243 296.688 174.241 294.529 185.268C289.414 225.812 279.915 267.159 277.87 307.679C277.5 323.979 263.804 420.262 272.59 427.042C304.812 433.343 364.641 414.849 396.334 407.043C405.32 404.622 414.787 403.849 423.482 400.494C434.028 393.974 445.567 389.394 456.828 384.317C464.939 381.094 475.281 384.843 478.257 393.347C482.327 401.311 475.588 408.662 470.905 414.497C465.406 417.94 458.593 418.129 452.992 421.353C440.797 428.165 428.879 435.706 418.755 445.406C403.879 455.119 388.865 468.567 376.802 481.712C383.658 479.408 389.96 475.834 396.495 472.8C405.612 468.497 414.831 464.281 423.248 458.68C432.292 452.583 442.518 448.251 450.76 441.001C456.507 435.779 463.057 431.447 470.088 428.15C481.92 423.245 494.093 432.238 486.251 444.341C482.969 450.147 477.105 453.721 472.699 458.549C469.476 461.758 467.535 465.93 465.595 469.97C477.265 468.263 488.162 462.75 497.512 455.719C501.641 452.904 506.265 450.891 510.349 448.017C521.334 439.98 532.829 432.657 543.711 424.474C554.006 415.563 562.818 405.939 574.052 397.927C581.652 392.821 593.92 396.06 595.977 405.643C603.286 397.708 610.215 388.65 612.344 377.812C614.416 368.695 617.713 359.929 620.163 350.914C622.016 339.93 628.026 330.362 631.673 319.961C636.341 306.848 643.605 294.901 649.396 282.284C656.063 266.822 667.207 253.84 674.428 238.67C682.248 223.506 697.361 205.028 712.005 195.975C716.279 194.633 720.977 194.867 725.353 195.64C729.087 197.769 731.932 201.153 735.112 204.012C732.836 210.299 730.575 216.746 726.141 221.881C719.328 231.493 714.398 242.302 708.504 252.484C697.079 271.814 691.61 295 679.694 313.966C672.328 326.525 668.36 340.82 660.176 352.912C655.012 359.579 651.322 367.207 646.318 373.99C639.156 383.442 635.626 394.907 631.746 405.935C629.587 416.962 624.248 427.45 624.962 438.915C624.569 446.602 626.83 454.45 631.527 460.576C635.597 461.247 640.133 461.32 643.707 458.913C651.935 454.027 660.03 448.922 668.243 443.991C673.932 440.184 679.607 435.925 683.487 430.192C688.257 421.163 692.677 411.594 700.19 404.447C712.361 392.847 759.914 389.672 744.083 414.818C742.157 419.267 737.183 420.799 733.478 423.38C726.111 428.471 718.716 433.664 712.414 440.082C710.109 442.08 709.919 445.26 709.161 448.003C731.909 444.499 756.225 437.752 774.862 423.687C781.047 419.15 781.208 410.238 787.101 405.395C790.646 402.58 794.599 398.102 799.632 399.838C804.869 401.748 811.943 403.134 813.927 409.158C817.297 416.452 815.634 424.795 818.114 432.366C818.945 438.74 820.39 445.114 824.634 450.176C859.804 433.78 876.197 389.274 909.912 369.06C914.434 366.566 918.606 362.35 924.179 362.831C930.656 362.496 937.76 367.805 937.366 374.705C939.039 402.637 936.985 432.53 934.025 460.474C931.939 473.587 929.299 486.686 924.675 499.172C923.566 500.952 921.743 502.192 919.861 503.038C917.337 502.163 915.003 500.864 912.596 499.741C912.392 485.271 912.64 470.801 912.553 456.332C912.529 440.649 911.289 426.742 912.378 411.171C912.757 406.664 912.903 402.157 913.355 397.664C904.661 402.128 898.651 410.048 891.678 416.641C886.368 421.615 882.853 428.092 877.835 433.328C871.868 439.995 864.618 445.523 859.484 452.918C855.72 458.884 849.156 462.035 844.24 466.878C830.259 480.117 817.151 481.374 803.468 467.767C796.16 461.802 793.315 452.481 789.552 444.21C776.992 451.708 763.907 458.52 749.918 462.925C726.234 470.036 705.882 477.759 683.75 460.956C679.884 464.077 675.683 466.703 671.292 469.007C662.7 473.515 655.129 480.458 645.356 482.369C639.623 483.025 633.817 482.967 628.084 482.573C617.663 481.966 603.35 467.928 603.402 457.849C603.417 450.045 600.864 442.635 599.332 435.079C581.145 451.386 562.764 481.855 536.154 485.592C527.738 484.994 521.64 478.182 517.453 471.458C506.177 476.271 496.243 483.871 484.588 487.868C478.636 489.779 472.685 491.69 466.719 493.513C459.323 495.861 451.883 491.938 445.348 488.845C440.534 486.643 438.579 481.61 437.048 476.928C428.733 481.1 420.914 486.19 412.512 490.158C404.372 493.557 397.02 498.545 388.691 501.492C376.321 506.218 363.075 510.579 349.684 508.654C340.82 506.586 325.909 496.612 337.708 486.949C356.281 468.192 372.967 447.938 392.615 430.221C383.906 429.2 375.679 432.468 367.16 433.489C337.085 440.262 298.526 437.409 271.321 452.685C268.695 455.661 269.337 459.949 269.132 463.61C269.708 519.685 267.31 575.387 282.188 630.189C291.711 663.92 322.589 705.115 310.867 740.829H296.221C287.848 736.015 285.266 726.271 281.969 717.899C251.567 642.31 250.956 550.122 181.462 496.08C157.311 481.2 128.613 484.714 102.822 475.498C97.0743 474.083 92.6252 468.555 92.7127 462.618C95.2947 458.315 99.4667 454.464 104.616 453.808C143.27 449.331 213.017 449.599 247.354 429.988C253.518 282.692 281.295 156.957 314.718 16.0929C319.783 -2.4363 355.928 -6.94162 343.368 14.1821ZM166.539 468.541C168.071 469.955 169.471 471.604 171.485 472.377C208.66 489.958 228.17 530.651 250.023 563.558C251.467 548.184 248.564 532.97 247.368 517.697C247.281 496.78 247.426 475.863 247.339 454.946C222.076 455.215 189.896 458.638 166.539 468.541ZM374.628 483.01C375.416 483.798 375.416 483.798 374.628 483.01V483.01Z" fill="white"/>
<path d="M1181.68 20.9503C1190.95 14.0548 1209.03 22.085 1198.67 33.5677C1191.76 38.0896 1184.34 42.9323 1180.81 50.7361C1127.99 171.057 1066.7 331.001 1093.99 464.675C1101.01 481.32 1097.3 499.409 1110.68 513.774C1111.61 520.113 1110.55 523.663 1103.65 525.02C1095.48 523.459 1090.29 516.283 1087.57 508.931C1038.13 365.433 1084.6 251.376 1129.58 111.723C1136 96.5134 1143.47 81.4814 1149.45 66.0958C1151.41 60.4362 1155.51 55.7102 1156.58 49.7151C1159.04 43.4428 1161.71 36.8789 1166.66 32.1382C1171.51 28.2885 1174.9 25.2636 1181.68 20.9503Z" fill="white"/>
<path d="M87.6946 201.839C96.4762 198.688 106.614 202.495 111.428 210.372C112.683 216.732 111.647 223.952 107.125 228.853C103.289 232.223 98.2851 234.673 96.4033 239.779C81.343 271.959 63.1756 302.877 51.7951 336.575C36.5063 400.681 17.6641 467.269 19.8925 533.684C21.0699 552.26 18.1707 592.4 34.7716 603.088C38.3806 595.148 38.6747 590.641 47.5356 590.528C48.192 600.433 46.5436 610.789 41.1609 619.264C38.6801 623.977 25.1032 621.499 22.0806 618.929C13.97 613.488 11.5631 603.54 8.22258 594.977C-11.459 514.325 10.088 429.164 25.494 348.376C31.0206 318.603 39.6789 284.489 54.3187 257.531C61.4811 244.68 62.5752 229.305 70.5836 216.863C75.4267 210.999 81.247 205.865 87.6946 201.839Z" fill="white"/>
<path d="M1389.77 397.189C1398.27 407.542 1396.96 418.84 1385.29 426.216C1363.08 439.348 1336.46 443.854 1311.92 450.546C1307.48 451.815 1302.61 451.568 1298.47 453.741C1298.16 456.862 1298.58 460.305 1301.37 462.245C1330.09 495.343 1404.63 456.328 1440.32 446.214C1443.52 442.042 1444.31 436.645 1446.65 432.007C1469.31 389.156 1521.55 361.392 1566.92 387.898C1580.62 396.145 1568.59 413.454 1559.03 419.054C1551.7 423.415 1544.83 428.521 1537.16 432.255C1528.69 436.543 1519.41 439.198 1511.43 444.464C1502.31 450.853 1490.35 451.276 1482.01 458.948C1579.82 500.272 1699.04 452.2 1801.72 447.512C1801.72 447.512 1804.5 447.5 1806 448C1807.5 448.5 1808.91 449.168 1809.54 450.5C1810.17 451.832 1808.35 456.875 1801.37 459.013C1794.39 461.151 1763.41 466.45 1744.83 470.778C1697.14 485.008 1641.1 488.006 1591.73 491.301C1543.62 493.138 1495.59 493.511 1451.27 469.655C1444.01 468.225 1437.34 472.762 1430.41 474.162C1384.83 482.442 1326.81 511.727 1283.66 479.968C1276.48 474.571 1273.71 465.687 1270.23 457.825C1231.48 455.88 1187.29 462.68 1148.71 467C1144.45 467.613 1140.17 467.073 1135.96 466.329C1136.84 463.456 1137.07 459.809 1140.25 458.467C1147.9 454.587 1154.43 448.811 1162.29 445.339C1199.57 436.479 1239.45 439.107 1277.36 432.255C1283.52 425.472 1285.79 415.801 1292.81 409.631C1297.96 405.036 1302.93 400.281 1307.72 395.292C1331.38 369.972 1367.27 368.535 1389.77 397.189ZM1476.1 433.086C1495.98 426.36 1518.53 417.871 1535.67 405.27C1513.3 405.594 1491.71 417.813 1476.1 433.086ZM1327.77 415.407C1323.08 419.185 1316.75 421.417 1313.87 427.077C1319.59 423.678 1326.64 424.918 1332.31 421.49C1339.97 417.449 1349.01 417.508 1356.6 413.365C1356.72 412.855 1356.93 411.834 1357.05 411.323C1353.17 409.529 1349.12 408.187 1345.26 406.378C1339.24 409.004 1333.01 411.308 1327.77 415.407Z" fill="white"/>
<path d="M1389.77 397.189C1398.27 407.542 1396.96 418.84 1385.29 426.216C1363.08 439.348 1336.46 443.854 1311.92 450.546C1307.48 451.815 1302.61 451.568 1298.47 453.741C1298.16 456.862 1298.58 460.305 1301.37 462.245C1330.09 495.343 1404.63 456.328 1440.32 446.214C1443.52 442.042 1444.31 436.645 1446.65 432.007C1469.31 389.156 1521.55 361.392 1566.92 387.898C1580.62 396.145 1568.59 413.454 1559.03 419.054C1551.7 423.415 1544.83 428.521 1537.16 432.255C1528.69 436.543 1519.41 439.198 1511.43 444.464C1502.31 450.853 1490.35 451.276 1482.01 458.948C1579.82 500.272 1699.04 452.2 1801.72 447.512C1801.72 447.512 1804.5 447.5 1806 448C1807.5 448.5 1808.91 449.168 1809.54 450.5C1810.17 451.832 1808.35 456.875 1801.37 459.013C1794.39 461.151 1763.41 466.45 1744.83 470.778C1697.14 485.008 1641.1 488.006 1591.73 491.301C1543.62 493.138 1495.59 493.511 1451.27 469.655C1444.01 468.225 1437.34 472.762 1430.41 474.162C1384.83 482.442 1326.81 511.727 1283.66 479.968C1276.48 474.571 1273.71 465.687 1270.23 457.825C1231.48 455.88 1187.29 462.68 1148.71 467C1144.45 467.613 1140.17 467.073 1135.96 466.329C1136.84 463.456 1137.07 459.809 1140.25 458.467C1147.9 454.587 1154.43 448.811 1162.29 445.339C1199.57 436.479 1239.45 439.107 1277.36 432.255C1283.52 425.472 1285.79 415.801 1292.81 409.631C1297.96 405.036 1302.93 400.281 1307.72 395.292C1331.38 369.972 1367.27 368.535 1389.77 397.189ZM1476.1 433.086C1495.98 426.36 1518.53 417.871 1535.67 405.27C1513.3 405.594 1491.71 417.813 1476.1 433.086ZM1327.77 415.407C1323.08 419.185 1316.75 421.417 1313.87 427.077C1319.59 423.678 1326.64 424.918 1332.31 421.49C1339.97 417.449 1349.01 417.508 1356.6 413.365C1356.72 412.855 1356.93 411.834 1357.05 411.323C1353.17 409.529 1349.12 408.187 1345.26 406.378C1339.24 409.004 1333.01 411.308 1327.77 415.407Z" fill="white"/>
</svg>
